<svg
        width="150"
        viewBox="0 0 499 582"
        fill="none"
        xmlns="http://www.w3.org/2000/svg"
      >
        <path
          fill-rule="evenodd"
          clip-rule="evenodd"
          d="M249.305 508.233C291.651 508.233 321.961 540.32 324.166 581.084V581.058H373.348C370.131 539.724 353.076 494.758 313.129 475.679L301.08 470.05L298.668 468.662L329.173 450.985L498.584 548.945V486.535L384.385 420.7L498.584 356.253V294.245L332.999 391.998L303.492 374.722C377.368 331.585 439.39 281.405 439.39 187.063C439.39 82.5006 353.076 0 249.305 0C145.534 0 59.2199 82.5006 59.2199 187.063C59.2199 281.405 121.241 331.585 195.104 374.748L165.598 392.024L0 294.271V356.279L114.406 420.726L0 486.561V548.971L169.411 451.011L200.123 468.688L197.517 470.076L185.675 475.705C145.534 494.783 128.478 539.737 125.262 581.084H174.638C176.843 540.333 207.153 508.233 249.305 508.233ZM387.601 188.671C387.601 271.172 314.945 312.519 249.305 344.23C241.471 348.056 168.412 296.45 159.801 288.824C129.088 262.339 111.021 230.019 111.021 188.671C111.021 113.395 174.249 51.7751 249.512 51.7751C324.581 51.7751 387.601 113.395 387.601 188.671ZM249.305 404.644L280.406 422.71L249.305 440.362L218.19 422.71L249.305 404.644Z"
          fill="white"
        />
      </svg>